<svg width="430" height="391" viewBox="0 0 430 391" fill="none" xmlns="http://www.w3.org/2000/svg">
<path d="M10.813 122.089C24.7275 81.0334 56.8402 46.6734 95.5224 24.5229C134.205 2.3725 179.721 -7.60554 215.876 7.90804C252.296 23.3845 279.661 64.608 316.762 100.285C353.822 135.669 400.66 165.798 419.546 210.004C438.696 254.173 429.894 312.418 404.838 358.621C379.782 404.823 338.738 438.946 294.609 451.117C250.703 462.958 203.976 452.81 157.556 442.918C110.87 433.063 64.2261 423.5 38.8709 392.739C13.2102 361.723 8.87954 309.8 4.878 260.219C0.570896 210.383 -3.14272 162.851 10.813 122.089Z" fill="#8A3FFC"/>
</svg>
